#tb 0: 1/1000
0,          0,          0,        0,    64896, 6bff7c1f4c5ef8412ebf669852c70de6
0,         33,         33,        0,    64896, fdfd7a2308de9509a41fed2880a8f0f5
0,         66,         66,        0,    64896, d8b464811e9c3b8a6db9cc277ac88c59
0,        100,        100,        0,    64896, b8fa29e79be3126dd74310d6dd09c747
0,        133,        133,        0,    64896, dad29803fed686887a0873eb78a469c6
0,        166,        166,        0,    64896, 684de29bbf800f52aea4af9850bcc5b3
0,        200,        200,        0,    64896, 06862dbce7571b4487766b179a596e1d
0,        233,        233,        0,    64896, 99582a966bc7070112e214ce7912e485
0,        266,        266,        0,    64896, a61158581a5719cb0cf13fb3301cb8c4
0,        300,        300,        0,    64896, 9c2295332f34fee3a249262c8ba843bc
